<?xml version="1.0" encoding="UTF-8" standalone="no"?>
<!-- Created with Inkscape (http://www.inkscape.org/) -->

<svg
   xmlns:dc="http://purl.org/dc/elements/1.1/"
   xmlns:cc="http://creativecommons.org/ns#"
   xmlns:rdf="http://www.w3.org/1999/02/22-rdf-syntax-ns#"
   xmlns:svg="http://www.w3.org/2000/svg"
   xmlns="http://www.w3.org/2000/svg"
   xmlns:xlink="http://www.w3.org/1999/xlink"
   xmlns:sodipodi="http://sodipodi.sourceforge.net/DTD/sodipodi-0.dtd"
   xmlns:inkscape="http://www.inkscape.org/namespaces/inkscape"
   width="744.09448819"
   height="1052.3622047"
   id="svg2"
   version="1.1"
   inkscape:version="0.48.3.1 r9886"
   sodipodi:docname="heart.svg">
  <defs
     id="defs4" />
  <sodipodi:namedview
     id="base"
     pagecolor="#ffffff"
     bordercolor="#666666"
     borderopacity="1.0"
     inkscape:pageopacity="0.0"
     inkscape:pageshadow="2"
     inkscape:zoom="0.98994949"
     inkscape:cx="378.71372"
     inkscape:cy="815.29922"
     inkscape:document-units="px"
     inkscape:current-layer="layer1"
     showgrid="false"
     inkscape:window-width="1024"
     inkscape:window-height="749"
     inkscape:window-x="0"
     inkscape:window-y="0"
     inkscape:window-maximized="1" />
  <metadata
     id="metadata7">
    <rdf:RDF>
      <cc:Work
         rdf:about="">
        <dc:format>image/svg+xml</dc:format>
        <dc:type
           rdf:resource="http://purl.org/dc/dcmitype/StillImage" />
        <dc:title></dc:title>
      </cc:Work>
    </rdf:RDF>
  </metadata>
  <g
     inkscape:label="Layer 1"
     inkscape:groupmode="layer"
     id="layer1">
    <g
       id="g3073">
      <g
         transform="translate(-7.0710678,-1.0101525)"
         id="g2993">
        <text
           xml:space="preserve"
           style="font-size:18px;font-style:normal;font-weight:normal;line-height:125%;letter-spacing:0px;word-spacing:0px;fill:#000000;fill-opacity:1;stroke:none;font-family:Sans"
           x="43.436558"
           y="66.4533"
           id="text2989"
           sodipodi:linespacing="125%"><tspan
             id="tspan3006"
             sodipodi:role="line"
             x="43.436558"
             y="66.4533">{H.S.WaitForAPulse}</tspan></text>
      </g>
      <use
         height="1052.3622"
         width="744.09448"
         transform="translate(-290.92393,-73.741137)"
         id="use3020"
         xlink:href="#path3014"
         y="0"
         x="0" />
    </g>
    <g
       id="g3087"
       transform="translate(-121.21831,-34.345187)">
      <use
         height="1052.3622"
         width="744.09448"
         transform="translate(333.35034,-9.0913727)"
         id="use3024"
         xlink:href="#use3020"
         y="0"
         x="0" />
      <text
         xml:space="preserve"
         style="font-size:18px;font-style:normal;font-weight:normal;line-height:125%;letter-spacing:0px;word-spacing:0px;fill:#000000;fill-opacity:1;stroke:none;font-family:Sans"
         x="403.05087"
         y="61.402538"
         id="text3034"
         sodipodi:linespacing="125%"><tspan
           sodipodi:role="line"
           x="403.05087"
           y="61.402538"
           id="tspan3038">{H.S.APulse}</tspan></text>
    </g>
    <g
       id="g3092"
       transform="translate(45.456864,-45.456864)">
      <use
         height="1052.3622"
         width="744.09448"
         transform="translate(51.517777,-32.324879)"
         id="use3016"
         xlink:href="#path3014"
         y="0"
         x="0" />
      <text
         sodipodi:linespacing="125%"
         id="text3042"
         y="109.88987"
         x="401.03055"
         style="font-size:18px;font-style:normal;font-weight:normal;line-height:125%;letter-spacing:0px;word-spacing:0px;fill:#000000;fill-opacity:1;stroke:none;font-family:Sans"
         xml:space="preserve"><tspan
           id="tspan3044"
           y="109.88987"
           x="401.03055"
           sodipodi:role="line">{H.S.AVDelay}</tspan></text>
    </g>
    <g
       id="g3099"
       transform="translate(12.12183,11.111678)">
      <path
         d="m 74.751287,95.242645 c 0,6.415755 -5.200998,11.616755 -11.616754,11.616755 -6.415756,0 -11.616755,-5.201 -11.616755,-11.616755 0,-6.415756 5.200999,-11.616754 11.616755,-11.616754 6.415756,0 11.616754,5.200998 11.616754,11.616754 z"
         sodipodi:ry="11.616755"
         sodipodi:rx="11.616755"
         sodipodi:cy="95.242645"
         sodipodi:cx="63.134533"
         id="path3014"
         style="fill:none;stroke:#000000;stroke-width:2;stroke-linecap:butt;stroke-linejoin:bevel;stroke-miterlimit:4;stroke-opacity:1;stroke-dasharray:none"
         sodipodi:type="arc"
         transform="matrix(0.83987125,0,0,0.83987125,354.57167,79.900844)" />
      <text
         sodipodi:linespacing="125%"
         id="text3050"
         y="197.77315"
         x="337.39093"
         style="font-size:18px;font-style:normal;font-weight:normal;line-height:125%;letter-spacing:0px;word-spacing:0px;fill:#000000;fill-opacity:1;stroke:none;font-family:Sans"
         xml:space="preserve"
         inkscape:transform-center-y="-54.548237"><tspan
           id="tspan3052"
           y="197.77315"
           x="337.39093"
           sodipodi:role="line">{H.S.WaitForVPulse}</tspan></text>
    </g>
    <g
       id="g3104">
      <text
         xml:space="preserve"
         style="font-size:18px;font-style:normal;font-weight:normal;line-height:125%;letter-spacing:0px;word-spacing:0px;fill:#000000;fill-opacity:1;stroke:none;font-family:Sans"
         x="184.85791"
         y="200.8036"
         id="text3046"
         sodipodi:linespacing="125%"><tspan
           sodipodi:role="line"
           x="184.85791"
           y="200.8036"
           id="tspan3048">{H.S.VPulse}</tspan></text>
      <use
         height="1052.3622"
         width="744.09448"
         transform="translate(-173.74624,9.0913736)"
         id="use3097"
         xlink:href="#path3014"
         y="0"
         x="0" />
    </g>
    <path
       style="fill:none;stroke:#000000;stroke-width:1px;stroke-linecap:butt;stroke-linejoin:miter;stroke-opacity:1"
       d="m 78.791899,83.625892 c 1.34687,0.336717 2.679248,0.73788 4.04061,1.010152 0.660357,0.132072 1.34687,0 2.020305,0 2.020305,0 4.04061,0 6.060915,0 5.509181,0 11.437611,0 14.142131,0 -1.17645,-0.38951 -0.73682,-5.924249 -3.03045,-7.071068 -0.30117,-0.150584 -0.70899,0.150585 -1.01016,0 -0.42591,-0.212959 -0.58423,-0.797193 -1.01015,-1.010152 -0.602337,-0.301169 -1.544113,0.47619 -2.020303,0 -0.238095,-0.238095 0.238095,-0.772057 0,-1.010153 -0.238095,-0.238095 -0.708983,0.150585 -1.010153,0 -0.425917,-0.212959 -0.584234,-0.797193 -1.010152,-1.010152 -0.301169,-0.150585 -0.772057,0.238095 -1.010153,0 -0.238095,-0.238096 0.238096,-0.772058 0,-1.010153 -0.238095,-0.238095 -0.772057,0.238095 -1.010152,0 -1.34687,-1.34687 1.683587,-1.010152 -1.010153,-1.010152"
       id="path3129"
       inkscape:connector-curvature="0" />
    <path
       style="fill:none;stroke:#000000;stroke-width:1px;stroke-linecap:butt;stroke-linejoin:miter;stroke-opacity:1"
       d="m 107.07617,84.636044 c -0.66599,4.172837 -0.72142,3.751874 -3.03046,6.060915 -0.33672,0.336718 -0.58423,0.797194 -1.01015,1.010153 -0.30117,0.150585 -0.70898,-0.150585 -1.01015,0 -0.42592,0.212959 -0.58424,0.797194 -1.01016,1.010153 -0.30116,0.150584 -0.70898,-0.150585 -1.01015,0 -0.425916,0.212958 -0.584233,0.797193 -1.010151,1.010152 -0.301169,0.150585 -0.708983,-0.150585 -1.010152,0 -0.425918,0.212959 -0.558399,0.859568 -1.010153,1.010153 -0.638876,0.212958 -1.381428,-0.212959 -2.020305,0 -4.459029,1.486343 3.670051,1.010152 -3.030457,1.010152"
       id="path3131"
       inkscape:connector-curvature="0" />
    <path
       style="fill:none;stroke:#000000;stroke-width:1px;stroke-linecap:butt;stroke-linejoin:miter;stroke-opacity:1"
       d="m 121.21831,86.656349 c 7.5873,0.588543 14.89724,-1.402433 22.22335,-3.030457 3.03046,-0.673435 6.11314,-1.144353 9.09137,-2.020305 2.76002,-0.811769 5.32121,-2.218689 8.08122,-3.030458 2.97824,-0.875952 6.06092,-1.34687 9.09138,-2.020305 6.06091,-1.34687 12.09455,-2.822972 18.18274,-4.04061 3.69151,-0.738302 7.44068,-1.185987 11.11168,-2.020305 3.7437,-0.850842 7.34706,-2.277535 11.11168,-3.030458 4.66943,-0.933886 9.4356,-1.296223 14.14214,-2.020305 4.04871,-0.622879 8.09783,-1.253829 12.12183,-2.020305 3.04955,-0.580868 6.05358,-1.38077 9.09137,-2.020305 3.3602,-0.707411 6.72831,-1.377789 10.10152,-2.020305 3.69813,-0.704406 7.47102,-1.062236 11.11168,-2.020306 8.15977,-2.147307 7.2038,-3.726014 15.15229,-5.050762 1.66068,-0.27678 3.37747,0.185921 5.05076,0 4.54235,-0.504706 3.8392,-1.333649 8.08122,-3.030458 0.31264,-0.125054 0.77206,0.238095 1.01016,0 0.20651,-0.206512 -0.20026,-2.62994 0,-3.030458 0.21295,-0.425917 0.79719,-0.584234 1.01015,-1.010152 0.30117,-0.602339 -0.47619,-1.544115 0,-2.020305 0.23809,-0.238095 0.67343,0 1.01015,0 0.33672,0 0.70898,-0.150585 1.01015,0 0.42592,0.212959 0.58424,0.797194 1.01016,1.010152 0.30117,0.150585 0.67343,0 1.01015,0 0.33672,0.336718 0.58423,0.797194 1.01015,1.010153 0.30117,0.150585 0.70898,-0.150585 1.01015,0 0.82137,0.410684 0.83581,1.602399 2.02031,1.010152 0.42592,-0.212958 0.5584,-0.859567 1.01015,-1.010152 4.5985,0 0.0578,0.47619 3.03046,-1.010153 0.30117,-0.150584 0.77206,0.238096 1.01015,0 0.2381,-0.238095 -0.23809,-0.772057 0,-1.010152 0.47619,-0.476191 1.41797,0.301169 2.02031,0 2.4189,-1.209453 -0.63659,-2.020305 2.0203,-2.020305 -1.01015,-1.683588 -1.88926,-3.453092 -3.03046,-5.050763 -1.54406,-2.161683 -3.80084,-2.910577 -6.06091,-4.04061 -0.67344,-0.336718 -1.34687,-0.673435 -2.02031,-1.010153 -0.67343,-0.336717 -1.28986,-0.827542 -2.0203,-1.010152 -0.97999,-0.244998 -2.07214,0.319438 -3.03046,0 -0.71428,-0.238096 -1.30602,-0.772058 -2.0203,-1.010153 -0.63888,-0.212959 -1.41797,0.301169 -2.02031,0 -0.42592,-0.212959 -0.58423,-0.797194 -1.01015,-1.010152 -0.30117,-0.150585 -0.70899,0.150584 -1.01015,0 -0.85184,-0.425918 -1.16847,-1.594388 -2.02031,-2.020305 -2.69374,0 0.33672,0.336717 -1.01015,-1.010153 -1.34687,-1.34687 -1.01015,1.683588 -1.01015,-1.010153"
       id="path3133"
       inkscape:connector-curvature="0" />
    <path
       style="fill:none;stroke:#000000;stroke-width:1px;stroke-linecap:butt;stroke-linejoin:miter;stroke-opacity:1"
       d="m 308.09653,41.199485 c 0,5.050762 0,10.101525 0,15.152288 0,0.582047 0.18408,4.682587 0,5.050763 -0.21296,0.425917 -0.7972,0.584234 -1.01016,1.010152 -0.15058,0.301169 0,0.673435 0,1.010153 0,0.336717 0,0.673435 0,1.010152"
       id="path3135"
       inkscape:connector-curvature="0" />
    <path
       style="fill:none;stroke:#000000;stroke-width:1px;stroke-linecap:butt;stroke-linejoin:miter;stroke-opacity:1"
       d="m 336.3808,43.21979 c 7.07107,0 14.14213,0 21.2132,0 4.04061,0 8.09782,-0.36582 12.12183,0 8.0156,0.728691 15.62247,3.719056 23.23351,6.060915 4.68588,1.441809 9.45626,2.598801 14.14214,4.04061 21.46042,6.603208 -7.56385,-2.184565 11.11167,4.04061 1.34687,0.336718 2.69374,0.673435 4.04061,1.010153 1.01016,0 2.05047,-0.244998 3.03046,0 0.46197,0.115493 0.58424,0.797194 1.01015,1.010153 0.30117,0.150584 0.70899,-0.150585 1.01016,0 0.42591,0.212958 0.61393,0.746009 1.01015,1.010152 0.64374,0.42916 5.40569,2.866651 6.06091,3.030458 0.65333,0.163332 1.34687,0 2.02031,0 1.68359,0 3.36717,0 5.05076,0 5.35661,0 0.74255,-0.319439 6.06092,1.010152 0.32666,0.08167 0.67343,0 1.01015,0 1.01015,0 2.03992,-0.198107 3.03046,0 0.7383,0.147661 1.30602,0.772058 2.0203,1.010153 0.84664,0.282211 3.37116,-0.334727 4.04061,0 1.8394,0.9197 0.59215,0.76628 1.01016,2.020305 0.23809,0.714286 0.77205,1.306019 1.01015,2.020305 0.21296,0.638877 -0.30117,1.417966 0,2.020305 0.21296,0.425918 0.79719,0.584235 1.01015,1.010153 0.15059,0.301169 -0.30117,0.859568 0,1.010152 0.60234,0.301169 1.38143,-0.212959 2.02031,0 0.45175,0.150585 0.61393,0.74601 1.01015,1.010153 0.62647,0.417646 1.39383,0.592506 2.0203,1.010152 0.39622,0.264143 0.61394,0.74601 1.01016,1.010153 0.62647,0.417646 1.39383,0.592506 2.0203,1.010152 0.39622,0.264143 0.5584,0.859568 1.01015,1.010153 5.7242,0 0.33672,-0.673435 2.02031,1.010152 2.02105,2.021053 -7.5e-4,-2.021052 2.0203,0 0.2381,0.238096 -0.23809,0.772058 0,1.010153 0.24186,0.241853 4.04061,-0.229634 4.04061,0 0,0.336718 -0.67343,0 -1.01015,0"
       id="path3137"
       inkscape:connector-curvature="0" />
    <path
       style="fill:none;stroke:#000000;stroke-width:1px;stroke-linecap:butt;stroke-linejoin:miter;stroke-opacity:1"
       d="m 489.92398,80.595434 c -28.01474,-6.225498 14.80583,3.080386 -22.22335,-4.04061 -4.41154,-0.848373 -8.74659,-2.055926 -13.13198,-3.030458 -4.70626,-1.045835 -9.4542,-1.905352 -14.14214,-3.030457 -3.73316,-0.895959 -7.41257,-2.002928 -11.11168,-3.030458 -7.89904,-2.194177 -5.37181,-0.321044 -9.09137,-4.04061"
       id="path3139"
       inkscape:connector-curvature="0" />
    <path
       style="fill:none;stroke:#000000;stroke-width:1px;stroke-linecap:butt;stroke-linejoin:miter;stroke-opacity:1"
       d="m 475.78185,75.544671 c 1.55165,-3.458257 -2.15241,-3.294659 -3.03046,-5.050762 -0.15058,-0.30117 0,-0.673435 0,-1.010153 0,-0.336718 0,-0.673435 0,-1.010153 0,-0.336717 0.2381,-0.772057 0,-1.010152 -0.23809,-0.238095 -0.77206,0.238095 -1.01015,0 -0.47619,-0.476191 0.47619,-1.544115 0,-2.020305 -0.2381,-0.238095 -0.77206,0.238095 -1.01015,0 -0.2381,-0.238095 0.15058,-0.708983 0,-1.010153 -0.21296,-0.425917 -0.74601,-0.613938 -1.01016,-1.010152 -0.41764,-0.62647 -0.67343,-1.34687 -1.01015,-2.020305"
       id="path3141"
       inkscape:connector-curvature="0" />
    <path
       style="fill:none;stroke:#000000;stroke-width:1px;stroke-linecap:butt;stroke-linejoin:miter;stroke-opacity:1"
       d="m 224.25387,168.47871 c -0.33672,-1.34687 -0.24006,-2.88546 -1.01016,-4.04061 -0.67343,-1.01016 -2.0203,-1.34687 -3.03046,-2.02031 -1.01015,-0.67343 -2.04254,-1.31465 -3.03045,-2.0203 -1.36999,-0.97857 -2.71167,-1.99684 -4.04061,-3.03046 -1.70188,-1.32369 -3.25683,-2.84465 -5.05077,-4.04061 -2.25877,-1.50585 -4.78751,-2.57262 -7.07106,-4.04061 -14.28268,-9.18172 0.46982,-1.28032 -15.15229,-9.09138 -1.34687,-0.67343 -2.61204,-1.54411 -4.04061,-2.0203 -4.5985,0 -0.0578,0.47619 -3.03046,-1.01015 -0.64278,-0.32139 -4.17743,0.29111 -5.05076,0 -1.42857,-0.47619 -2.57973,-1.65509 -4.04061,-2.02031 -0.65333,-0.16333 -1.36698,0.16333 -2.02031,0 -1.31947,-0.32987 -4.27483,-2.5649 -5.05076,-3.03046 -0.64563,-0.38737 -1.37468,-0.62277 -2.02031,-1.01015 -1.04104,-0.62462 -1.98941,-1.39568 -3.03045,-2.0203 -0.64563,-0.38738 -1.30602,-0.77206 -2.02031,-1.01016 -0.63887,-0.21296 -1.54411,0.47619 -2.0203,0 -0.2381,-0.23809 0.23809,-0.77205 0,-1.01015 -0.2381,-0.23809 -0.70899,0.15059 -1.01016,0 -0.42591,-0.21296 -0.61393,-0.74601 -1.01015,-1.01015 -0.62647,-0.41765 -1.48791,-0.47776 -2.0203,-1.01015 -0.5324,-0.5324 -0.59251,-1.39384 -1.01016,-2.02031 -0.26414,-0.39621 -0.74601,-0.61394 -1.01015,-1.01015 -0.41765,-0.62647 -0.5925,-1.39384 -1.01015,-2.02031 -0.26414,-0.39621 -0.67344,-0.67343 -1.01015,-1.01015 -0.33672,-0.67343 -0.59251,-1.39383 -1.01016,-2.0203 -0.26414,-0.39622 -0.79719,-0.58424 -1.01015,-1.01016 -0.30117,-0.60234 0.30117,-1.41796 0,-2.0203 -0.21296,-0.42592 -0.79719,-0.58424 -1.01015,-1.01015 -0.15059,-0.30117 0,-0.67344 0,-1.01016 -0.33672,-0.67343 -0.59251,-1.39383 -1.01015,-2.0203 -0.26415,-0.39622 -0.85957,-0.5584 -1.01016,-1.01015 -0.42591,-1.27776 0.32667,-2.73396 0,-4.04061 -0.18261,-0.73045 -0.67343,-1.34687 -1.01015,-2.02031 -0.33672,-0.67344 -0.5925,-1.39384 -1.01015,-2.02031 -0.52829,-0.79242 -1.59439,-1.168465 -2.02031,-2.0203 -0.15058,-0.301169 0.2381,-0.772058 0,-1.010153 -0.23809,-0.238095 -0.70898,0.150585 -1.01015,0 -0.85183,-0.425917 -1.16847,-1.594387 -2.0203,-2.020305 -0.30117,-0.150584 -0.70899,0.150585 -1.01016,0 -4.20401,-2.102006 1.07989,0.06974 -1.01015,-2.020305 -0.67343,-0.336717 -1.34687,-0.673435 -2.0203,-1.010152 0,-0.336718 0.23809,-0.772058 0,-1.010153 -0.47619,-0.47619 -1.54412,0.47619 -2.02031,0 -0.23809,-0.238095 0.2381,-0.772057 0,-1.010153 -0.2764,-0.2764 -3.49261,0.273998 -4.04061,0 -0.42592,-0.212958 -0.58423,-0.797193 -1.01015,-1.010152 -0.20721,-0.103605 -2.888,-0.142458 -3.03046,0 -0.23809,0.238095 0,0.673435 0,1.010152 0,0.336718 0,0.673435 0,1.010153 0,3.703893 0,7.407785 0,11.111678"
       id="path3143"
       inkscape:connector-curvature="0" />
    <path
       style="fill:none;stroke:#000000;stroke-width:1px;stroke-linecap:butt;stroke-linejoin:miter;stroke-opacity:1"
       d="m 127.27922,128.0726 c 0,-2.69374 0,-5.38748 0,-8.08122 0,-1.34687 -0.26414,-2.71989 0,-4.04061 0.20882,-1.04411 0.7519,-1.99745 1.01015,-3.03045 0.0817,-0.32667 0,-0.67344 0,-1.01016 0,-0.67343 0,-1.34687 0,-2.0203 0,-1.68359 0,-3.36718 0,-5.05076 0,-1.01016 -0.14285,-2.03046 0,-3.03046 0.19634,-1.37437 0.73788,-2.679251 1.01016,-4.040613 0.40168,-2.008398 0.67343,-4.04061 1.01015,-6.060915 1.68359,-0.673435 3.25571,-1.763869 5.05076,-2.020305 3,-0.428572 6.06092,0 9.09137,0 3.36718,0 6.73435,0 10.10153,0 3.03046,0 6.07945,0.334658 9.09137,0 3.0854,-0.342822 6.06092,-1.34687 9.09138,-2.020305 6.06091,-1.34687 12.15936,-2.534764 18.18274,-4.04061 2.37815,-0.594538 4.74552,-1.245124 7.07107,-2.020305 1.72023,-0.57341 3.28066,-1.62695 5.05076,-2.020306 1.3148,-0.292177 2.73396,0.326664 4.04061,0 0.32667,-0.08167 0,-0.673435 0,-1.010152"
       id="path3145"
       inkscape:connector-curvature="0" />
  </g>
</svg>
