<?xml version="1.0" encoding="UTF-8" standalone="no"?>
<!DOCTYPE svg PUBLIC "-//W3C//DTD SVG 1.0//EN" "http://www.w3.org/TR/2001/REC-SVG-20010904/DTD/svg10.dtd">
<!-- Generated by Microsoft Visio 11.0, SVG Export, v1.0 Heart Model for VVI mode.svg Page-1 -->
<svg xmlns="http://www.w3.org/2000/svg" xmlns:xlink="http://www.w3.org/1999/xlink" xmlns:ev="http://www.w3.org/2001/xml-events"
		xmlns:v="http://schemas.microsoft.com/visio/2003/SVGExtensions/" width="16.0354in" height="11.6929in"
		viewBox="0 0 1154.55 841.89" xml:space="preserve" color-interpolation-filters="sRGB" class="st11">
	<v:documentProperties v:langID="1033" v:viewMarkup="false">
		<v:userDefs>
			<v:ud v:nameU="msvNoAutoConnect" v:val="VT0(1):26"/>
			<v:ud v:nameU="msvSubprocessMaster" v:prompt="" v:val="VT4(Multiple process)"/>
		</v:userDefs>
	</v:documentProperties>

	<style type="text/css">
	<![CDATA[
		.st1 {visibility:visible}
		.st2 {fill:#cdcdcd;fill-opacity:0.5;stroke:#cdcdcd;stroke-linecap:round;stroke-linejoin:round;stroke-opacity:0.5;stroke-width:0.25}
		.st3 {fill:url(#grad30-7);stroke:#404040;stroke-linecap:round;stroke-linejoin:round;stroke-width:0.25}
		.st4 {fill:url(#grad30-11);stroke:#404040;stroke-linecap:round;stroke-linejoin:round;stroke-width:0.25}
		.st5 {marker-end:url(#mrkr5-38);stroke:#404040;stroke-linecap:round;stroke-linejoin:round;stroke-width:1}
		.st6 {fill:#404040;fill-opacity:1;stroke:#404040;stroke-opacity:1;stroke-width:0.28409090909091}
		.st7 {fill:none;stroke:none;stroke-linecap:round;stroke-linejoin:round;stroke-width:0.25}
		.st8 {fill:#000000;font-family:Calibri;font-size:1.00001em}
		.st9 {fill:#ff0000;font-family:Calibri;font-size:1.00001em}
		.st10 {font-size:1em}
		.st11 {fill:none;fill-rule:evenodd;font-size:12px;overflow:visible;stroke-linecap:square;stroke-miterlimit:3}
	]]>
	</style>

	<defs id="Patterns_And_Gradients">
		<linearGradient id="grad30-7" v:fillPattern="30" v:foreground="#ffffff" v:background="#f5f5f5" x1="0" y1="1" x2="0" y2="0">
			<stop offset="0" style="stop-color:#ffffff;stop-opacity:1"/>
			<stop offset="1" style="stop-color:#f5f5f5;stop-opacity:1"/>
		</linearGradient>
		<linearGradient id="grad30-11" v:fillPattern="30" v:foreground="#f0f0f0" v:background="#ffffff" x1="0" y1="1" x2="0" y2="0">
			<stop offset="0" style="stop-color:#f0f0f0;stop-opacity:1"/>
			<stop offset="1" style="stop-color:#ffffff;stop-opacity:1"/>
		</linearGradient>
	</defs>
	<defs id="Markers">
		<g id="lend5">
			<path d="M 2 1 L 0 0 L 1.98117 -0.993387 C 1.67173 -0.364515 1.67301 0.372641 1.98465 1.00043 " style="stroke:none"/>
		</g>
		<marker id="mrkr5-38" class="st6" v:arrowType="5" v:arrowSize="2" v:setback="6.16" refX="-6.16" orient="auto"
				markerUnits="strokeWidth" overflow="visible">
			<use xlink:href="#lend5" transform="scale(-3.52,-3.52) "/>
		</marker>
	</defs>
	<g v:mID="0" v:index="1" v:groupContext="foregroundPage">
		<v:userDefs>
			<v:ud v:nameU="msvThemeColors" v:val="VT0(36):26"/>
			<v:ud v:nameU="msvThemeEffects" v:val="VT0(16):26"/>
			<v:ud v:nameU="msvThemeOrder" v:val="VT0(0):26"/>
		</v:userDefs>
		<title>Page-1</title>
		<v:pageProperties v:drawingScale="0.0393701" v:pageScale="0.0393701" v:drawingUnits="24" v:shadowOffsetX="8.50394"
				v:shadowOffsetY="-8.50394"/>
		<v:layer v:name="Flowchart" v:index="0"/>
		<v:layer v:name="Connector" v:index="1"/>
		<g id="group1-1" transform="translate(446.244,-751.181)" v:mID="1" v:groupContext="group" v:layerMember="0">
			<v:custProps>
				<v:cp v:nameU="Cost" v:lbl="Cost" v:type="7" v:format="@" v:langID="1033"/>
				<v:cp v:nameU="Duration" v:lbl="Duration" v:type="2" v:langID="1033"/>
				<v:cp v:nameU="Resources" v:lbl="Resources" v:langID="1033"/>
			</v:custProps>
			<v:userDefs>
				<v:ud v:nameU="visVersion" v:val="VT0(14):26"/>
				<v:ud v:nameU="msvThemeColors" v:val="VT0(36):26"/>
				<v:ud v:nameU="msvThemeEffects" v:val="VT0(16):26"/>
			</v:userDefs>
			<title>Start state</title>
			<g id="shape2-2" v:mID="2" v:groupContext="shape" v:layerMember="0">
				<title>Sheet.2</title>
				<v:userDefs>
					<v:ud v:nameU="msvThemeColors" v:val="VT0(36):26"/>
					<v:ud v:nameU="msvThemeEffects" v:val="VT0(16):26"/>
				</v:userDefs>
				<g id="shadow2-3" v:groupContext="shadow" v:shadowOffsetX="1.44" v:shadowOffsetY="-1.44" v:shadowType="1"
						transform="matrix(1,0,0,1,1.44,1.44)" class="st1">
					<path d="M0 827.72 A14.1732 14.1732 0 0 1 28.35 827.72 A14.1732 14.1732 0 1 1 0 827.72 Z" class="st2"/>
				</g>
				<path d="M0 827.72 A14.1732 14.1732 0 0 1 28.35 827.72 A14.1732 14.1732 0 1 1 0 827.72 Z" class="st3"/>
			</g>
			<g id="shape3-8" v:mID="3" v:groupContext="shape" v:layerMember="0" transform="translate(2.83465,-2.83465)">
				<title>Sheet.3</title>
				<v:userDefs>
					<v:ud v:nameU="msvThemeColors" v:val="VT0(36):26"/>
					<v:ud v:nameU="msvThemeEffects" v:val="VT0(16):26"/>
				</v:userDefs>
				<path d="M0 830.55 A11.3386 11.3386 0 0 1 22.68 830.55 A11.3386 11.3386 0 1 1 0 830.55 Z" class="st4"/>
			</g>
		</g>
		<g id="shape4-12" v:mID="4" v:groupContext="shape" v:layerMember="0" transform="translate(781.188,-751.181)">
			<title>State</title>
			<v:custProps>
				<v:cp v:nameU="Cost" v:lbl="Cost" v:type="7" v:format="@" v:langID="1033"/>
				<v:cp v:nameU="Duration" v:lbl="Duration" v:type="2" v:langID="1033"/>
				<v:cp v:nameU="Resources" v:lbl="Resources" v:langID="1033"/>
			</v:custProps>
			<v:userDefs>
				<v:ud v:nameU="visVersion" v:val="VT0(14):26"/>
				<v:ud v:nameU="msvThemeColors" v:val="VT0(36):26"/>
				<v:ud v:nameU="msvThemeEffects" v:val="VT0(16):26"/>
			</v:userDefs>
			<g id="shadow4-13" v:groupContext="shadow" v:shadowOffsetX="1.44" v:shadowOffsetY="-1.44" v:shadowType="1"
					transform="matrix(1,0,0,1,1.44,1.44)" class="st1">
				<path d="M0 827.72 A14.1732 14.1732 0 0 1 28.35 827.72 A14.1732 14.1732 0 1 1 0 827.72 Z" class="st2"/>
			</g>
			<path d="M0 827.72 A14.1732 14.1732 0 0 1 28.35 827.72 A14.1732 14.1732 0 1 1 0 827.72 Z" class="st4"/>
		</g>
		<g id="shape5-17" v:mID="5" v:groupContext="shape" v:layerMember="0" transform="translate(882.215,-751.181)">
			<title>State.5</title>
			<v:custProps>
				<v:cp v:nameU="Cost" v:lbl="Cost" v:type="7" v:format="@" v:langID="1033"/>
				<v:cp v:nameU="Duration" v:lbl="Duration" v:type="2" v:langID="1033"/>
				<v:cp v:nameU="Resources" v:lbl="Resources" v:langID="1033"/>
			</v:custProps>
			<v:userDefs>
				<v:ud v:nameU="visVersion" v:val="VT0(14):26"/>
				<v:ud v:nameU="msvThemeColors" v:val="VT0(36):26"/>
				<v:ud v:nameU="msvThemeEffects" v:val="VT0(16):26"/>
			</v:userDefs>
			<g id="shadow5-18" v:groupContext="shadow" v:shadowOffsetX="1.44" v:shadowOffsetY="-1.44" v:shadowType="1"
					transform="matrix(1,0,0,1,1.44,1.44)" class="st1">
				<path d="M0 827.72 A14.1732 14.1732 0 0 1 28.35 827.72 A14.1732 14.1732 0 1 1 0 827.72 Z" class="st2"/>
			</g>
			<path d="M0 827.72 A14.1732 14.1732 0 0 1 28.35 827.72 A14.1732 14.1732 0 1 1 0 827.72 Z" class="st4"/>
		</g>
		<g id="shape6-22" v:mID="6" v:groupContext="shape" v:layerMember="0" transform="translate(666.081,-609.803)">
			<title>State.6</title>
			<v:custProps>
				<v:cp v:nameU="Cost" v:lbl="Cost" v:type="7" v:format="@" v:langID="1033"/>
				<v:cp v:nameU="Duration" v:lbl="Duration" v:type="2" v:langID="1033"/>
				<v:cp v:nameU="Resources" v:lbl="Resources" v:langID="1033"/>
			</v:custProps>
			<v:userDefs>
				<v:ud v:nameU="visVersion" v:val="VT0(14):26"/>
				<v:ud v:nameU="msvThemeColors" v:val="VT0(36):26"/>
				<v:ud v:nameU="msvThemeEffects" v:val="VT0(16):26"/>
			</v:userDefs>
			<g id="shadow6-23" v:groupContext="shadow" v:shadowOffsetX="1.44" v:shadowOffsetY="-1.44" v:shadowType="1"
					transform="matrix(1,0,0,1,1.44,1.44)" class="st1">
				<path d="M0 827.72 A14.1732 14.1732 0 0 1 28.35 827.72 A14.1732 14.1732 0 1 1 0 827.72 Z" class="st2"/>
			</g>
			<path d="M0 827.72 A14.1732 14.1732 0 0 1 28.35 827.72 A14.1732 14.1732 0 1 1 0 827.72 Z" class="st4"/>
		</g>
		<g id="shape7-27" v:mID="7" v:groupContext="shape" v:layerMember="0" transform="translate(864,-609.803)">
			<title>State.7</title>
			<v:custProps>
				<v:cp v:nameU="Cost" v:lbl="Cost" v:type="7" v:format="@" v:langID="1033"/>
				<v:cp v:nameU="Duration" v:lbl="Duration" v:type="2" v:langID="1033"/>
				<v:cp v:nameU="Resources" v:lbl="Resources" v:langID="1033"/>
			</v:custProps>
			<v:userDefs>
				<v:ud v:nameU="visVersion" v:val="VT0(14):26"/>
				<v:ud v:nameU="msvThemeColors" v:val="VT0(36):26"/>
				<v:ud v:nameU="msvThemeEffects" v:val="VT0(16):26"/>
			</v:userDefs>
			<g id="shadow7-28" v:groupContext="shadow" v:shadowOffsetX="1.44" v:shadowOffsetY="-1.44" v:shadowType="1"
					transform="matrix(1,0,0,1,1.44,1.44)" class="st1">
				<path d="M0 827.72 A14.1732 14.1732 0 0 1 28.35 827.72 A14.1732 14.1732 0 1 1 0 827.72 Z" class="st2"/>
			</g>
			<path d="M0 827.72 A14.1732 14.1732 0 0 1 28.35 827.72 A14.1732 14.1732 0 1 1 0 827.72 Z" class="st4"/>
		</g>
		<g id="shape9-32" v:mID="9" v:groupContext="shape" v:layerMember="1" transform="translate(809.534,-758.268)">
			<title>Dynamic connector.9</title>
			<v:userDefs>
				<v:ud v:nameU="msvThemeColors" v:val="VT0(36):26"/>
				<v:ud v:nameU="msvThemeEffects" v:val="VT0(16):26"/>
			</v:userDefs>
			<path d="M0 834.8 L66.52 834.8" class="st5"/>
		</g>
		<g id="shape10-39" v:mID="10" v:groupContext="shape" v:layerMember="1" transform="translate(910.561,-765.354)">
			<title>Dynamic connector.10</title>
			<v:userDefs>
				<v:ud v:nameU="msvThemeColors" v:val="VT0(36):26"/>
				<v:ud v:nameU="msvThemeEffects" v:val="VT0(16):26"/>
			</v:userDefs>
			<path d="M0 841.89 L95.17 841.89 L95.17 891.71" class="st5"/>
		</g>
		<g id="shape12-45" v:mID="12" v:groupContext="shape" v:layerMember="1" transform="translate(694.427,-616.89)">
			<title>Dynamic connector.12</title>
			<v:userDefs>
				<v:ud v:nameU="msvThemeColors" v:val="VT0(36):26"/>
				<v:ud v:nameU="msvThemeEffects" v:val="VT0(16):26"/>
			</v:userDefs>
			<path d="M0 834.8 L163.41 834.8" class="st5"/>
		</g>
		<g id="shape13-51" v:mID="13" v:groupContext="shape" v:layerMember="0" transform="translate(991.559,-681.024)">
			<title>State.13</title>
			<v:custProps>
				<v:cp v:nameU="Cost" v:lbl="Cost" v:type="7" v:format="@" v:langID="1033"/>
				<v:cp v:nameU="Duration" v:lbl="Duration" v:type="2" v:langID="1033"/>
				<v:cp v:nameU="Resources" v:lbl="Resources" v:langID="1033"/>
			</v:custProps>
			<v:userDefs>
				<v:ud v:nameU="visVersion" v:val="VT0(14):26"/>
				<v:ud v:nameU="msvThemeColors" v:val="VT0(36):26"/>
				<v:ud v:nameU="msvThemeEffects" v:val="VT0(16):26"/>
			</v:userDefs>
			<g id="shadow13-52" v:groupContext="shadow" v:shadowOffsetX="1.44" v:shadowOffsetY="-1.44" v:shadowType="1"
					transform="matrix(1,0,0,1,1.44,1.44)" class="st1">
				<path d="M0 827.72 A14.1732 14.1732 0 0 1 28.35 827.72 A14.1732 14.1732 0 1 1 0 827.72 Z" class="st2"/>
			</g>
			<path d="M0 827.72 A14.1732 14.1732 0 0 1 28.35 827.72 A14.1732 14.1732 0 1 1 0 827.72 Z" class="st4"/>
		</g>
		<g id="shape16-56" v:mID="16" v:groupContext="shape" transform="translate(369.606,-780.318)">
			<title>Sheet.16</title>
			<desc>{H.S.WaitForAPulse}</desc>
			<v:userDefs>
				<v:ud v:nameU="msvThemeColors" v:val="VT0(36):26"/>
				<v:ud v:nameU="msvThemeEffects" v:val="VT0(16):26"/>
			</v:userDefs>
			<v:textBlock v:margins="rect(1,1,1,1)" v:tabSpace="42.5197"/>
			<v:textRect cx="52.4921" cy="835.593" width="104.99" height="12.5928"/>
			<rect x="0" y="829.297" width="104.984" height="12.5928" class="st7"/>
			<text x="3.15" y="839.19" class="st8" v:langID="1033"><v:paragraph v:horizAlign="1"/><v:tabList/>{H.S.WaitForAPulse}</text>		</g>
		<g id="shape17-59" v:mID="17" v:groupContext="shape" transform="translate(695.339,-737.008)">
			<title>Sheet.17</title>
			<desc>{H.VInterval &#60; PM.EstVInterval, VSense}</desc>
			<v:userDefs>
				<v:ud v:nameU="msvThemeColors" v:val="VT0(36):26"/>
				<v:ud v:nameU="msvThemeEffects" v:val="VT0(16):26"/>
			</v:userDefs>
			<v:textBlock v:margins="rect(1,1,1,1)" v:tabSpace="42.5197"/>
			<v:textRect cx="98.5295" cy="835.593" width="197.06" height="12.5928"/>
			<rect x="0" y="829.297" width="197.059" height="12.5928" class="st7"/>
			<text x="2.05" y="839.19" class="st9" v:langID="1033"><v:paragraph v:horizAlign="1"/><v:tabList/>{H.VInterval &#60; PM.EstVInterval, VSense}</text>		</g>
		<g id="shape18-62" v:mID="18" v:groupContext="shape" transform="translate(846.282,-781.108)">
			<title>Sheet.18</title>
			<desc>{PM.S.InhibitVPace}</desc>
			<v:userDefs>
				<v:ud v:nameU="msvThemeColors" v:val="VT0(36):26"/>
				<v:ud v:nameU="msvThemeEffects" v:val="VT0(16):26"/>
			</v:userDefs>
			<v:textBlock v:margins="rect(1,1,1,1)" v:tabSpace="42.5197"/>
			<v:textRect cx="52.4921" cy="835.593" width="104.99" height="12.5928"/>
			<rect x="0" y="829.297" width="104.984" height="12.5928" class="st7"/>
			<text x="4.07" y="839.19" class="st8" v:langID="1033"><v:paragraph v:horizAlign="1"/><v:tabList/>{PM.S.InhibitVPace}</text>		</g>
		<g id="shape19-65" v:mID="19" v:groupContext="shape" transform="translate(1009.05,-706.699)">
			<title>Sheet.19</title>
			<desc>{H.S.VRefactoryWait}</desc>
			<v:userDefs>
				<v:ud v:nameU="msvThemeColors" v:val="VT0(36):26"/>
				<v:ud v:nameU="msvThemeEffects" v:val="VT0(16):26"/>
			</v:userDefs>
			<v:textBlock v:margins="rect(1,1,1,1)" v:tabSpace="42.5197"/>
			<v:textRect cx="55.0353" cy="835.593" width="110.08" height="12.5928"/>
			<rect x="0" y="829.297" width="110.071" height="12.5928" class="st7"/>
			<text x="3.27" y="839.19" class="st8" v:langID="1033"><v:paragraph v:horizAlign="1"/><v:tabList/>{H.S.VRefactoryWait}</text>		</g>
		<g id="shape20-68" v:mID="20" v:groupContext="shape" v:layerMember="1" transform="translate(892.346,-623.976)">
			<title>Dynamic connector.20</title>
			<v:userDefs>
				<v:ud v:nameU="msvThemeColors" v:val="VT0(36):26"/>
				<v:ud v:nameU="msvThemeEffects" v:val="VT0(16):26"/>
			</v:userDefs>
			<path d="M0 841.89 L38.27 841.89 L38.27 770.67 L93.05 770.67" class="st5"/>
		</g>
		<g id="shape21-74" v:mID="21" v:groupContext="shape" transform="translate(584.762,-588.543)">
			<title>Sheet.21</title>
			<desc>{H.VInterval &#62; PM.EstVInterval, NoVSense}</desc>
			<v:userDefs>
				<v:ud v:nameU="msvThemeColors" v:val="VT0(36):26"/>
				<v:ud v:nameU="msvThemeEffects" v:val="VT0(16):26"/>
			</v:userDefs>
			<v:textBlock v:margins="rect(1,1,1,1)" v:tabSpace="42.5197"/>
			<v:textRect cx="83.2805" cy="835.104" width="166.57" height="13.5724"/>
			<rect x="0" y="828.317" width="166.561" height="13.5724" class="st7"/>
			<text x="7.68" y="831.5" class="st9" v:langID="1033"><v:paragraph v:horizAlign="1"/><v:tabList/>{H.VInterval &#62; PM.EstVInterval, <tspan
						x="56.73" dy="1.2em" class="st10">NoVSense</tspan>}</text>		</g>
		<g id="shape22-78" v:mID="22" v:groupContext="shape" transform="translate(844.841,-646.817)">
			<title>Sheet.22</title>
			<desc>{H.S.VPulse, PM.S.VPace}</desc>
			<v:userDefs>
				<v:ud v:nameU="msvThemeColors" v:val="VT0(36):26"/>
				<v:ud v:nameU="msvThemeEffects" v:val="VT0(16):26"/>
			</v:userDefs>
			<v:textBlock v:margins="rect(1,1,1,1)" v:tabSpace="42.5197"/>
			<v:textRect cx="33.3327" cy="835.593" width="66.67" height="12.5928"/>
			<rect x="0" y="829.297" width="66.6654" height="12.5928" class="st7"/>
			<text x="4.06" y="831.99" class="st8" v:langID="1033"><v:paragraph v:horizAlign="1"/><v:tabList/>{H.S.VPulse, <tspan
						x="2.53" dy="1.2em" class="st10">PM</tspan>.S.VPace}</text>		</g>
		<g id="shape8-82" v:mID="8" v:groupContext="shape" v:layerMember="0" transform="translate(519.591,-751.106)">
			<title>State.8</title>
			<v:custProps>
				<v:cp v:nameU="Cost" v:lbl="Cost" v:type="7" v:format="@" v:langID="1033"/>
				<v:cp v:nameU="Duration" v:lbl="Duration" v:type="2" v:langID="1033"/>
				<v:cp v:nameU="Resources" v:lbl="Resources" v:langID="1033"/>
			</v:custProps>
			<v:userDefs>
				<v:ud v:nameU="visVersion" v:val="VT0(14):26"/>
				<v:ud v:nameU="msvThemeColors" v:val="VT0(36):26"/>
				<v:ud v:nameU="msvThemeEffects" v:val="VT0(16):26"/>
			</v:userDefs>
			<g id="shadow8-83" v:groupContext="shadow" v:shadowOffsetX="1.44" v:shadowOffsetY="-1.44" v:shadowType="1"
					transform="matrix(1,0,0,1,1.44,1.44)" class="st1">
				<path d="M0 827.72 A14.1732 14.1732 0 0 1 28.35 827.72 A14.1732 14.1732 0 1 1 0 827.72 Z" class="st2"/>
			</g>
			<path d="M0 827.72 A14.1732 14.1732 0 0 1 28.35 827.72 A14.1732 14.1732 0 1 1 0 827.72 Z" class="st4"/>
		</g>
		<g id="shape23-87" v:mID="23" v:groupContext="shape" v:layerMember="0" transform="translate(589.292,-751.181)">
			<title>State.23</title>
			<v:custProps>
				<v:cp v:nameU="Cost" v:lbl="Cost" v:type="7" v:format="@" v:langID="1033"/>
				<v:cp v:nameU="Duration" v:lbl="Duration" v:type="2" v:langID="1033"/>
				<v:cp v:nameU="Resources" v:lbl="Resources" v:langID="1033"/>
			</v:custProps>
			<v:userDefs>
				<v:ud v:nameU="visVersion" v:val="VT0(14):26"/>
				<v:ud v:nameU="msvThemeColors" v:val="VT0(36):26"/>
				<v:ud v:nameU="msvThemeEffects" v:val="VT0(16):26"/>
			</v:userDefs>
			<g id="shadow23-88" v:groupContext="shadow" v:shadowOffsetX="1.44" v:shadowOffsetY="-1.44" v:shadowType="1"
					transform="matrix(1,0,0,1,1.44,1.44)" class="st1">
				<path d="M0 827.72 A14.1732 14.1732 0 0 1 28.35 827.72 A14.1732 14.1732 0 1 1 0 827.72 Z" class="st2"/>
			</g>
			<path d="M0 827.72 A14.1732 14.1732 0 0 1 28.35 827.72 A14.1732 14.1732 0 1 1 0 827.72 Z" class="st4"/>
		</g>
		<g id="shape25-92" v:mID="25" v:groupContext="shape" v:layerMember="0" transform="translate(666.081,-751.181)">
			<title>State.25</title>
			<v:custProps>
				<v:cp v:nameU="Cost" v:lbl="Cost" v:type="7" v:format="@" v:langID="1033"/>
				<v:cp v:nameU="Duration" v:lbl="Duration" v:type="2" v:langID="1033"/>
				<v:cp v:nameU="Resources" v:lbl="Resources" v:langID="1033"/>
			</v:custProps>
			<v:userDefs>
				<v:ud v:nameU="visVersion" v:val="VT0(14):26"/>
				<v:ud v:nameU="msvThemeColors" v:val="VT0(36):26"/>
				<v:ud v:nameU="msvThemeEffects" v:val="VT0(16):26"/>
			</v:userDefs>
			<g id="shadow25-93" v:groupContext="shadow" v:shadowOffsetX="1.44" v:shadowOffsetY="-1.44" v:shadowType="1"
					transform="matrix(1,0,0,1,1.44,1.44)" class="st1">
				<path d="M0 827.72 A14.1732 14.1732 0 0 1 28.35 827.72 A14.1732 14.1732 0 1 1 0 827.72 Z" class="st2"/>
			</g>
			<path d="M0 827.72 A14.1732 14.1732 0 0 1 28.35 827.72 A14.1732 14.1732 0 1 1 0 827.72 Z" class="st4"/>
		</g>
		<g id="shape26-97" v:mID="26" v:groupContext="shape" v:layerMember="1" transform="translate(474.591,-772.403)">
			<title>Dynamic connector</title>
			<v:userDefs>
				<v:ud v:nameU="msvThemeColors" v:val="VT0(36):26"/>
				<v:ud v:nameU="msvThemeEffects" v:val="VT0(16):26"/>
			</v:userDefs>
			<path d="M0 848.94 L21.26 848.94 L21.26 849.01 L38.84 849.01" class="st5"/>
		</g>
		<g id="shape27-103" v:mID="27" v:groupContext="shape" v:layerMember="1" transform="translate(547.937,-758.23)">
			<title>Dynamic connector.27</title>
			<v:userDefs>
				<v:ud v:nameU="msvThemeColors" v:val="VT0(36):26"/>
				<v:ud v:nameU="msvThemeEffects" v:val="VT0(16):26"/>
			</v:userDefs>
			<path d="M0 834.84 L21.26 834.84 L21.26 834.77 L35.2 834.77" class="st5"/>
		</g>
		<g id="shape28-109" v:mID="28" v:groupContext="shape" v:layerMember="1" transform="translate(617.639,-758.268)">
			<title>Dynamic connector.28</title>
			<v:userDefs>
				<v:ud v:nameU="msvThemeColors" v:val="VT0(36):26"/>
				<v:ud v:nameU="msvThemeEffects" v:val="VT0(16):26"/>
			</v:userDefs>
			<path d="M0 834.8 L42.28 834.8" class="st5"/>
		</g>
		<g id="shape29-115" v:mID="29" v:groupContext="shape" transform="translate(501.848,-780.958)">
			<title>Sheet.29</title>
			<desc>{H.S.APulse}</desc>
			<v:userDefs>
				<v:ud v:nameU="msvThemeColors" v:val="VT0(36):26"/>
				<v:ud v:nameU="msvThemeEffects" v:val="VT0(16):26"/>
			</v:userDefs>
			<v:textBlock v:margins="rect(1,1,1,1)" v:tabSpace="42.5197"/>
			<v:textRect cx="31.9154" cy="835.593" width="63.84" height="12.5928"/>
			<rect x="0" y="829.297" width="63.8307" height="12.5928" class="st7"/>
			<text x="2.18" y="839.19" class="st8" v:langID="1033"><v:paragraph v:horizAlign="1"/><v:tabList/>{H.S.APulse}</text>		</g>
		<g id="shape30-118" v:mID="30" v:groupContext="shape" transform="translate(565.906,-737.008)">
			<title>Sheet.30</title>
			<desc>{H.S.AVDelay}</desc>
			<v:userDefs>
				<v:ud v:nameU="msvThemeColors" v:val="VT0(36):26"/>
				<v:ud v:nameU="msvThemeEffects" v:val="VT0(16):26"/>
			</v:userDefs>
			<v:textBlock v:margins="rect(1,1,1,1)" v:tabSpace="42.5197"/>
			<v:textRect cx="38.3189" cy="835.593" width="76.64" height="12.5928"/>
			<rect x="0" y="829.297" width="76.6378" height="12.5928" class="st7"/>
			<text x="4.5" y="839.19" class="st8" v:langID="1033"><v:paragraph v:horizAlign="1"/><v:tabList/>{H.S.AVDelay}</text>		</g>
		<g id="shape31-121" v:mID="31" v:groupContext="shape" transform="translate(627.762,-781.108)">
			<title>Sheet.31</title>
			<desc>{H.S.WaitForVPulse}</desc>
			<v:userDefs>
				<v:ud v:nameU="msvThemeColors" v:val="VT0(36):26"/>
				<v:ud v:nameU="msvThemeEffects" v:val="VT0(16):26"/>
			</v:userDefs>
			<v:textBlock v:margins="rect(1,1,1,1)" v:tabSpace="42.5197"/>
			<v:textRect cx="52.4921" cy="835.593" width="104.99" height="12.5928"/>
			<rect x="0" y="829.297" width="104.984" height="12.5928" class="st7"/>
			<text x="3.22" y="839.19" class="st8" v:langID="1033"><v:paragraph v:horizAlign="1"/><v:tabList/>{H.S.WaitForVPulse}</text>		</g>
		<g id="shape32-124" v:mID="32" v:groupContext="shape" v:layerMember="1" transform="translate(694.427,-758.268)">
			<title>Dynamic connector.32</title>
			<v:userDefs>
				<v:ud v:nameU="msvThemeColors" v:val="VT0(36):26"/>
				<v:ud v:nameU="msvThemeEffects" v:val="VT0(16):26"/>
			</v:userDefs>
			<path d="M0 834.8 L80.6 834.8" class="st5"/>
		</g>
		<g id="shape33-130" v:mID="33" v:groupContext="shape" v:layerMember="1" transform="translate(673.168,-751.181)">
			<title>Dynamic connector.33</title>
			<v:userDefs>
				<v:ud v:nameU="msvThemeColors" v:val="VT0(36):26"/>
				<v:ud v:nameU="msvThemeEffects" v:val="VT0(16):26"/>
			</v:userDefs>
			<path d="M7.09 841.89 L7.09 948.76" class="st5"/>
		</g>
		<g id="shape11-136" v:mID="11" v:groupContext="shape" v:layerMember="1" transform="translate(1005.73,-681.024)">
			<title>Dynamic connector.11</title>
			<v:userDefs>
				<v:ud v:nameU="msvThemeColors" v:val="VT0(36):26"/>
				<v:ud v:nameU="msvThemeEffects" v:val="VT0(16):26"/>
			</v:userDefs>
			<path d="M0 841.89 L0 998.5 L-545.31 998.5 L-545.31 777.89" class="st5"/>
		</g>
		<g id="shape14-142" v:mID="14" v:groupContext="shape" v:layerMember="1" transform="translate(406.559,-758.268)">
			<title>Dynamic connector.14</title>
			<v:userDefs>
				<v:ud v:nameU="msvThemeColors" v:val="VT0(36):26"/>
				<v:ud v:nameU="msvThemeEffects" v:val="VT0(16):26"/>
			</v:userDefs>
			<path d="M0 834.8 L33.53 834.8" class="st5"/>
		</g>
	</g>
</svg>
